HIERARCHY
ROOT Hips
{
 OFFSET 0.000000 0.000000 0.000000
 CHANNELS 6 Xposition Yposition Zposition Yrotation Xrotation Zrotation
 JOINT Chest
 {
  OFFSET 0.000000 9.585900 0.002600
  CHANNELS 3 Yrotation Xrotation Zrotation
  JOINT Chest2
  {
   OFFSET 0.000000 9.601200 -0.005300
   CHANNELS 3 Yrotation Xrotation Zrotation
   JOINT Chest3
   {
    OFFSET 0.000000 9.561800 0.000000
    CHANNELS 3 Yrotation Xrotation Zrotation
    JOINT Chest4
    {
     OFFSET 0.000000 9.552100 0.000000
     CHANNELS 3 Yrotation Xrotation Zrotation
     JOINT Neck
     {
      OFFSET 0.000000 14.453000 0.000000
      CHANNELS 3 Yrotation Xrotation Zrotation
      JOINT Head
      {
       OFFSET 0.000000 8.936500 -0.011300
       CHANNELS 3 Yrotation Xrotation Zrotation
       End Site
       {
        OFFSET 0.000000 17.073600 -0.006000
       }
      }
     }
     JOINT RightCollar
     {
      OFFSET -2.921100 9.558500 0.000000
      CHANNELS 3 Yrotation Xrotation Zrotation
      JOINT RightShoulder
      {
       OFFSET -13.519700 0.000000 0.000000
       CHANNELS 3 Yrotation Xrotation Zrotation
       JOINT RightElbow
       {
        OFFSET 0.000000 -29.696600 0.000000
        CHANNELS 3 Yrotation Xrotation Zrotation
        JOINT RightWrist
        {
         OFFSET 0.000000 -24.004700 0.000000
         CHANNELS 3 Yrotation Xrotation Zrotation
         End Site
         {
          OFFSET 0.000000 -17.728500 0.000000
         }
        }
       }
      }
     }
     JOINT LeftCollar
     {
      OFFSET 2.921100 9.558500 0.000000
      CHANNELS 3 Yrotation Xrotation Zrotation
      JOINT LeftShoulder
      {
       OFFSET 13.519700 0.000000 0.000000
       CHANNELS 3 Yrotation Xrotation Zrotation
       JOINT LeftElbow
       {
        OFFSET 0.000000 -29.696600 0.000000
        CHANNELS 3 Yrotation Xrotation Zrotation
        JOINT LeftWrist
        {
         OFFSET 0.000000 -24.004700 0.000000
         CHANNELS 3 Yrotation Xrotation Zrotation
         End Site
         {
          OFFSET 0.000000 -17.728500 0.000000
         }
        }
       }
      }
     }
    }
   }
  }
 }
 JOINT RightHip
 {
  OFFSET -7.771700 -0.012900 -0.001300
  CHANNELS 3 Yrotation Xrotation Zrotation
  JOINT RightKnee
  {
   OFFSET 0.000000 -40.869800 0.001200
   CHANNELS 3 Yrotation Xrotation Zrotation
   JOINT RightAnkle
   {
    OFFSET 0.000000 -39.717900 0.002100
    CHANNELS 3 Yrotation Xrotation Zrotation
    JOINT RightToe
    {
     OFFSET 0.000000 -4.965400 11.033500
     CHANNELS 3 Yrotation Xrotation Zrotation
     End Site
     {
      OFFSET 0.000000 -1.423100 5.872300
     }
    }
   }
  }
 }
 JOINT LeftHip
 {
  OFFSET 7.771700 -0.012900 -0.001300
  CHANNELS 3 Yrotation Xrotation Zrotation
  JOINT LeftKnee
  {
   OFFSET 0.000000 -40.869800 0.001200
   CHANNELS 3 Yrotation Xrotation Zrotation
   JOINT LeftAnkle
   {
    OFFSET 0.000000 -39.717900 0.002100
    CHANNELS 3 Yrotation Xrotation Zrotation
    JOINT LeftToe
    {
     OFFSET 0.000000 -4.965400 11.033500
     CHANNELS 3 Yrotation Xrotation Zrotation
     End Site
     {
      OFFSET 0.000000 -1.423100 5.872300
     }
    }
   }
  }
 }
}
MOTION
Frames: 5
Frame Time: 0.008333
0.000000 85.388000 0.000000 0.000000 -5.767877 0.000000 0.000000 11.653817 0.000000 0.000000 -5.885947 0.000000 0.000000 -0.000000 0.000000 0.000000 -0.000000 0.000000 0.000000 12.528835 0.000000 0.000000 0.711642 0.000000 0.000000 -0.000000 0.000000 0.000000 0.000000 -90.000000 0.000000 -2.309062 0.000000 0.000000 2.309062 0.000000 0.000000 -0.000000 0.000000 0.000000 -0.000000 90.000000 0.000000 -2.309062 0.000000 0.000000 2.309062 0.000000 0.000000 8.520406 0.000000 0.000000 1.905762 0.000000 -0.000000 -4.658285 0.000000 0.000000 -0.000000 0.000000 0.000000 8.520406 0.000000 0.000000 1.905762 0.000000 -0.000000 -4.658285 0.000000 0.000000 -0.000000 0.000000
-17.621233 57.459944 70.626899 177.492341 -45.803122 -2.481757 2.037886 27.694279 5.692530 0.213550 5.118904 0.702155 0.361692 8.010851 1.096883 1.505119 22.693978 3.398876 0.919547 15.141162 -4.481290 3.348801 -7.408100 -8.659769 4.305034 1.936083 -0.745978 16.003321 -21.733911 -24.322357 35.253653 -78.521595 -8.544231 21.258073 7.276534 -22.802138 -9.134406 0.693083 -4.417090 -4.332743 -21.156707 -1.894413 -82.993091 -64.685383 58.009187 -15.127891 -3.862219 18.604962 6.315944 -26.193318 -2.073327 -6.685918 63.713670 -7.251189 5.508647 13.061825 8.412314 -0.386892 0.602008 -0.189227 -6.510223 -31.482190 -0.890267 28.269335 54.721687 27.634722 -12.195361 42.353444 3.181715 0.584861 -19.470502 -8.340753
-17.620974 57.461457 70.624360 177.491000 -45.790337 -2.475688 2.035886 27.698045 5.693295 0.216631 5.119776 0.702776 0.360328 8.011655 1.098647 1.501767 22.680851 3.392180 0.914733 15.165848 -4.465539 3.314466 -7.392249 -8.637181 4.296593 1.948767 -0.743392 16.023854 -21.757480 -24.354692 34.583762 -78.539854 -7.883214 21.192940 7.311573 -22.789929 -9.129164 0.731553 -4.401398 -4.347506 -21.178486 -1.892507 -83.033629 -64.699129 58.045389 -15.123650 -3.856964 18.613087 6.312973 -26.204224 -2.087001 -6.671898 63.716618 -7.230782 5.513267 13.057518 8.409923 -0.391236 0.604117 -0.194066 -6.530529 -31.495807 -0.888442 28.292034 54.723229 27.641970 -12.184687 42.353774 3.194110 0.578346 -19.480521 -8.348454
-17.619679 57.461705 70.623058 177.475172 -45.761777 -2.463826 2.049365 27.685391 5.700408 0.216421 5.121368 0.703222 0.367205 8.028853 1.107666 1.499254 22.660609 3.387087 0.891449 15.205854 -4.437872 3.280681 -7.403606 -8.630290 4.282336 1.939550 -0.749137 16.021995 -21.784316 -24.345729 33.937390 -78.534424 -7.257416 21.132375 7.347120 -22.785992 -9.138002 0.738748 -4.395434 -4.367579 -21.178932 -1.883992 -83.052192 -64.712011 58.074192 -15.125506 -3.856206 18.624289 6.310847 -26.234717 -2.094427 -6.648966 63.721003 -7.207733 5.518244 13.052977 8.407561 -0.408999 0.609446 -0.194696 -6.527466 -31.524295 -0.884938 28.281408 54.733023 27.638862 -12.199331 42.338444 3.175480 0.594412 -19.473837 -8.353574
-17.616510 57.464498 70.619388 177.472409 -45.749064 -2.470017 2.058017 27.690548 5.717393 0.216616 5.120430 0.703715 0.368145 8.029120 1.108279 1.503768 22.663131 3.390260 0.874048 15.206624 -4.432501 3.236608 -7.381387 -8.594982 4.262055 1.945123 -0.748454 16.036225 -21.809192 -24.356600 33.252195 -78.543102 -6.625735 21.075869 7.383854 -22.789689 -9.146311 0.742037 -4.388181 -4.386463 -21.168341 -1.877958 -83.096933 -64.727142 58.132244 -15.130498 -3.854795 18.637936 6.303261 -26.247597 -2.092198 -6.654692 63.726200 -7.196311 5.513278 13.050425 8.383041 -0.401321 0.609758 -0.189489 -6.535711 -31.534646 -0.875373 28.261869 54.743384 27.636401 -12.217946 42.327538 3.132849 0.609294 -19.472668 -8.345326
